<?xml version="1.0" standalone="no"?>
<!DOCTYPE svg PUBLIC "-//W3C//DTD SVG 20010904//EN"
 "http://www.w3.org/TR/2001/REC-SVG-20010904/DTD/svg10.dtd">
<svg version="1.0" xmlns="http://www.w3.org/2000/svg"
 width="270.000000pt" height="270.000000pt" viewBox="0 0 270.000000 270.000000"
 preserveAspectRatio="xMidYMid meet">
<metadata>
Created by potrace 1.11, written by Peter Selinger 2001-2013
</metadata>
<g transform="translate(0.000000,270.000000) scale(0.100000,-0.100000)"
fill="#000000" stroke="none">
<path d="M312 2453 c-18 -9 -43 -30 -55 -47 l-22 -31 0 -1015 0 -1015 22 -31
c48 -68 -14 -64 1083 -64 1097 0 1035 -4 1083 64 l22 31 0 1015 0 1015 -22 31
c-48 68 15 64 -1085 64 -894 0 -996 -2 -1026 -17z m566 -396 c2 -27 6 -47 10
-45 4 2 42 21 85 42 69 35 86 39 150 39 80 0 140 -23 175 -68 l20 -26 48 30
c141 90 325 85 397 -10 40 -54 47 -99 47 -321 0 -113 3 -213 6 -222 5 -13 26
-16 124 -16 130 0 130 0 130 -72 l0 -28 -124 0 -123 0 -7 -271 -8 -270 26 -40
c15 -22 42 -47 62 -56 35 -17 39 -17 145 14 9 3 23 -6 34 -23 17 -27 17 -27
-6 -45 -45 -35 -126 -59 -198 -59 -90 0 -144 28 -186 95 l-30 48 -5 301 -5
301 -40 3 c-39 3 -65 22 -65 49 0 7 20 22 44 33 88 42 88 43 84 252 -3 199 -9
223 -61 262 -43 32 -148 34 -211 4 l-49 -23 2 -235 c1 -134 6 -240 12 -246 5
-7 25 -15 44 -18 19 -4 35 -12 35 -19 0 -7 3 -21 6 -32 5 -19 0 -20 -165 -20
l-171 0 -6 28 c-7 35 -5 37 46 44 27 4 44 13 51 26 7 12 10 89 7 216 -4 208
-9 232 -58 276 -29 27 -166 28 -222 3 l-38 -17 0 -245 0 -245 41 -11 c39 -11
45 -17 51 -53 3 -17 -9 -19 -164 -20 -176 -2 -178 -2 -178 43 0 14 10 21 38
25 20 4 43 8 50 10 9 3 12 61 12 245 0 227 -1 241 -20 260 -12 12 -33 20 -54
20 -26 0 -36 5 -41 21 -9 27 -3 31 70 53 33 10 80 29 105 42 63 33 74 28 78
-29z m176 -888 c41 -32 37 -87 -11 -140 l-37 -41 64 -58 65 -58 12 30 c19 45
16 75 -7 81 -11 3 -20 12 -20 20 0 13 14 15 78 14 60 -2 77 -5 77 -17 0 -8
-10 -17 -23 -20 -16 -3 -34 -25 -57 -68 l-33 -62 58 -45 c32 -24 69 -50 84
-56 42 -19 31 -29 -33 -29 -51 0 -63 4 -101 34 l-43 34 -44 -34 c-77 -58 -161
-58 -221 2 -32 32 -34 38 -30 86 5 45 11 57 47 90 l42 39 -22 31 c-12 16 -24
50 -27 74 -4 39 -1 47 31 79 30 30 42 35 80 35 30 0 53 -7 71 -21z"/>
<path d="M944 1135 c-20 -31 -12 -74 21 -105 l24 -22 20 33 c23 38 27 89 9
107 -20 20 -56 14 -74 -13z"/>
<path d="M920 918 c-73 -119 55 -214 163 -120 16 14 14 19 -40 66 -106 95
-100 92 -123 54z"/>
</g>
</svg>
